# 3ds Max Wavefront OBJ Exporter v0.97b - (c)2007 guruware
# File Created: 29.11.2019 11:35:05

mtllib shirt 2019-11-29-1.mtl

#
# object Plane002
#

v  -7.527580 -6.520898 21.021183
v  -7.527580 -10.125628 19.987541
v  -3.777580 -10.125628 19.987541
v  -3.777580 -6.520898 21.021183
v  -0.027580 -10.125628 19.987541
v  -0.027580 -6.520898 21.021183
v  3.722420 -10.125628 19.987541
v  3.722420 -6.520898 21.021183
v  7.472420 -10.125628 19.987541
v  7.472420 -6.520898 21.021183
v  -7.527580 -2.916166 22.054823
v  -3.777580 -2.916166 22.054823
v  -0.027580 -2.916166 22.054823
v  3.722420 -2.916166 22.054823
v  7.472420 -2.916166 22.054823
v  -7.527580 0.688565 23.088461
v  -3.777580 0.688565 23.088461
v  -0.027580 0.688565 23.088461
v  3.722420 0.688565 23.088461
v  7.472420 0.688565 23.088461
v  -7.527580 4.293297 24.122103
v  -3.777580 4.293297 24.122103
v  -0.027580 4.293297 24.122103
v  3.722420 4.293297 24.122103
v  7.472420 4.293297 24.122103
# 25 vertices

vn 0.000000 -0.275637 0.961262
# 1 vertex normals

vt 0.000000 0.250000 0.000000
vt 0.000000 0.000000 0.000000
vt 0.250000 0.000000 0.000000
vt 0.250000 0.250000 0.000000
vt 0.500000 0.000000 0.000000
vt 0.500000 0.250000 0.000000
vt 0.750000 0.000000 0.000000
vt 0.750000 0.250000 0.000000
vt 1.000000 0.000000 0.000000
vt 1.000000 0.250000 0.000000
vt 0.000000 0.500000 0.000000
vt 0.250000 0.500000 0.000000
vt 0.500000 0.500000 0.000000
vt 0.750000 0.500000 0.000000
vt 1.000000 0.500000 0.000000
vt 0.000000 0.750000 0.000000
vt 0.250000 0.750000 0.000000
vt 0.500000 0.750000 0.000000
vt 0.750000 0.750000 0.000000
vt 1.000000 0.750000 0.000000
vt 0.000000 1.000000 0.000000
vt 0.250000 1.000000 0.000000
vt 0.500000 1.000000 0.000000
vt 0.750000 1.000000 0.000000
vt 1.000000 1.000000 0.000000
# 25 texture coords

g Plane002
usemtl wire_057008136
s 1
f 1/1/1 2/2/1 3/3/1 4/4/1 
f 4/4/1 3/3/1 5/5/1 6/6/1 
f 6/6/1 5/5/1 7/7/1 8/8/1 
f 8/8/1 7/7/1 9/9/1 10/10/1 
f 11/11/1 1/1/1 4/4/1 12/12/1 
f 12/12/1 4/4/1 6/6/1 13/13/1 
f 13/13/1 6/6/1 8/8/1 14/14/1 
f 14/14/1 8/8/1 10/10/1 15/15/1 
f 16/16/1 11/11/1 12/12/1 17/17/1 
f 17/17/1 12/12/1 13/13/1 18/18/1 
f 18/18/1 13/13/1 14/14/1 19/19/1 
f 19/19/1 14/14/1 15/15/1 20/20/1 
f 21/21/1 16/16/1 17/17/1 22/22/1 
f 22/22/1 17/17/1 18/18/1 23/23/1 
f 23/23/1 18/18/1 19/19/1 24/24/1 
f 24/24/1 19/19/1 20/20/1 25/25/1 
# 16 polygons

#
# object Plane003
#

v  -4.879449 3.137606 9.377184
v  -4.347394 2.765057 9.752184
v  -3.917211 3.379421 9.752184
v  -4.449266 3.751970 9.377184
v  -3.487029 3.993785 9.752184
v  -4.019084 4.366334 9.377184
v  -3.056847 4.608150 9.752184
v  -3.588902 4.980698 9.377184
v  -2.626664 5.222513 9.752184
v  -3.158719 5.595062 9.377184
v  -5.411504 3.510155 9.002184
v  -4.981321 4.124519 9.002184
v  -4.551139 4.738883 9.002184
v  -4.120956 5.353247 9.002184
v  -3.690774 5.967611 9.002184
v  -5.943559 3.882704 8.627184
v  -5.513376 4.497068 8.627184
v  -5.083194 5.111432 8.627184
v  -4.653011 5.725796 8.627184
v  -4.222829 6.340160 8.627184
v  -6.475614 4.255252 8.252184
v  -6.045431 4.869617 8.252184
v  -5.615249 5.483981 8.252184
v  -5.185066 6.098344 8.252184
v  -4.754884 6.712709 8.252184
# 25 vertices

vn -0.409576 0.286788 0.866025
# 1 vertex normals

vt 0.000000 0.250000 0.000000
vt 0.000000 0.000000 0.000000
vt 0.250000 0.000000 0.000000
vt 0.250000 0.250000 0.000000
vt 0.500000 0.000000 0.000000
vt 0.500000 0.250000 0.000000
vt 0.750000 0.000000 0.000000
vt 0.750000 0.250000 0.000000
vt 1.000000 0.000000 0.000000
vt 1.000000 0.250000 0.000000
vt 0.000000 0.500000 0.000000
vt 0.250000 0.500000 0.000000
vt 0.500000 0.500000 0.000000
vt 0.750000 0.500000 0.000000
vt 1.000000 0.500000 0.000000
vt 0.000000 0.750000 0.000000
vt 0.250000 0.750000 0.000000
vt 0.500000 0.750000 0.000000
vt 0.750000 0.750000 0.000000
vt 1.000000 0.750000 0.000000
vt 0.000000 1.000000 0.000000
vt 0.250000 1.000000 0.000000
vt 0.500000 1.000000 0.000000
vt 0.750000 1.000000 0.000000
vt 1.000000 1.000000 0.000000
# 25 texture coords

g Plane003
usemtl wire_057008136
s 1
f 26/26/2 27/27/2 28/28/2 29/29/2 
f 29/29/2 28/28/2 30/30/2 31/31/2 
f 31/31/2 30/30/2 32/32/2 33/33/2 
f 33/33/2 32/32/2 34/34/2 35/35/2 
f 36/36/2 26/26/2 29/29/2 37/37/2 
f 37/37/2 29/29/2 31/31/2 38/38/2 
f 38/38/2 31/31/2 33/33/2 39/39/2 
f 39/39/2 33/33/2 35/35/2 40/40/2 
f 41/41/2 36/36/2 37/37/2 42/42/2 
f 42/42/2 37/37/2 38/38/2 43/43/2 
f 43/43/2 38/38/2 39/39/2 44/44/2 
f 44/44/2 39/39/2 40/40/2 45/45/2 
f 46/46/2 41/41/2 42/42/2 47/47/2 
f 47/47/2 42/42/2 43/43/2 48/48/2 
f 48/48/2 43/43/2 44/44/2 49/49/2 
f 49/49/2 44/44/2 45/45/2 50/50/2 
# 16 polygons

